<svg width="80" height="16" viewBox="0 0 80 16" fill="none" xmlns="http://www.w3.org/2000/svg">
<path d="M79.9577 5.74402C79.9074 5.59593 79.8148 5.46581 79.6914 5.36971C79.5681 5.27362 79.4192 5.21577 79.2633 5.20329L74.7025 4.84094L72.7289 0.472711C72.666 0.332019 72.5638 0.212523 72.4345 0.128643C72.3052 0.0447622 72.1544 8.39724e-05 72.0003 1.21377e-07C71.8462 -8.48329e-05 71.6954 0.0444279 71.566 0.128166C71.4366 0.211904 71.3343 0.331289 71.2713 0.471911L69.2976 4.84094L64.7368 5.20329C64.5836 5.21542 64.4371 5.27145 64.3149 5.36466C64.1926 5.45785 64.0999 5.58429 64.0476 5.72885C63.9954 5.87339 63.9859 6.02993 64.0203 6.17972C64.0547 6.32952 64.1315 6.46623 64.2416 6.5735L67.612 9.85867L66.42 15.0196C66.3838 15.1758 66.3954 15.3393 66.4533 15.4888C66.5112 15.6384 66.6127 15.7671 66.7447 15.8582C66.8766 15.9493 67.0329 15.9988 67.1933 16C67.3537 16.0012 67.5107 15.9542 67.644 15.865L72.0001 12.9615L76.356 15.865C76.4923 15.9555 76.6531 16.0021 76.8166 15.9985C76.9802 15.9949 77.1386 15.9414 77.2708 15.8451C77.403 15.7486 77.5024 15.6142 77.5559 15.4596C77.6093 15.305 77.6142 15.1377 77.5697 14.9804L76.1064 9.86107L79.7353 6.59591C79.9729 6.38154 80.0601 6.04717 79.9577 5.74402Z" fill="#F3CD03"/>
<path d="M63.9577 5.74402C63.9074 5.59593 63.8148 5.46581 63.6914 5.36971C63.5681 5.27362 63.4192 5.21577 63.2633 5.20329L58.7025 4.84094L56.7289 0.472711C56.666 0.332019 56.5638 0.212523 56.4345 0.128643C56.3052 0.0447622 56.1544 8.39724e-05 56.0003 1.21377e-07C55.8462 -8.48329e-05 55.6954 0.0444279 55.566 0.128166C55.4366 0.211904 55.3343 0.331289 55.2713 0.471911L53.2976 4.84094L48.7368 5.20329C48.5836 5.21542 48.4371 5.27145 48.3149 5.36466C48.1926 5.45785 48.0999 5.58429 48.0476 5.72885C47.9954 5.87339 47.9859 6.02993 48.0203 6.17972C48.0547 6.32952 48.1315 6.46623 48.2416 6.5735L51.612 9.85867L50.42 15.0196C50.3838 15.1758 50.3954 15.3393 50.4533 15.4888C50.5112 15.6384 50.6127 15.7671 50.7447 15.8582C50.8766 15.9493 51.0329 15.9988 51.1933 16C51.3537 16.0012 51.5107 15.9542 51.644 15.865L56.0001 12.9615L60.356 15.865C60.4923 15.9555 60.6531 16.0021 60.8166 15.9985C60.9802 15.9949 61.1386 15.9414 61.2708 15.8451C61.403 15.7486 61.5024 15.6142 61.5559 15.4596C61.6093 15.305 61.6142 15.1377 61.5697 14.9804L60.1064 9.86107L63.7353 6.59591C63.9729 6.38154 64.0601 6.04717 63.9577 5.74402Z" fill="#F3CD03"/>
<path d="M47.9577 5.74402C47.9074 5.59593 47.8148 5.46581 47.6914 5.36971C47.5681 5.27362 47.4192 5.21577 47.2633 5.20329L42.7025 4.84094L40.7289 0.472711C40.666 0.332019 40.5638 0.212523 40.4345 0.128643C40.3052 0.0447622 40.1544 8.39724e-05 40.0003 1.21377e-07C39.8462 -8.48329e-05 39.6954 0.0444279 39.566 0.128166C39.4366 0.211904 39.3343 0.331289 39.2713 0.471911L37.2976 4.84094L32.7368 5.20329C32.5836 5.21542 32.4371 5.27145 32.3149 5.36466C32.1926 5.45785 32.0999 5.58429 32.0476 5.72885C31.9954 5.87339 31.9859 6.02993 32.0203 6.17972C32.0547 6.32952 32.1315 6.46623 32.2416 6.5735L35.612 9.85867L34.42 15.0196C34.3838 15.1758 34.3954 15.3393 34.4533 15.4888C34.5112 15.6384 34.6127 15.7671 34.7447 15.8582C34.8766 15.9493 35.0329 15.9988 35.1933 16C35.3537 16.0012 35.5107 15.9542 35.644 15.865L40.0001 12.9615L44.356 15.865C44.4923 15.9555 44.6531 16.0021 44.8166 15.9985C44.9802 15.9949 45.1386 15.9414 45.2708 15.8451C45.403 15.7486 45.5024 15.6142 45.5559 15.4596C45.6093 15.305 45.6142 15.1377 45.5697 14.9804L44.1064 9.86107L47.7353 6.59591C47.9729 6.38154 48.0601 6.04717 47.9577 5.74402Z" fill="#F3CD03"/>
<path d="M31.9577 5.74402C31.9074 5.59593 31.8148 5.46581 31.6914 5.36971C31.5681 5.27362 31.4192 5.21577 31.2633 5.20329L26.7025 4.84094L24.7289 0.472711C24.666 0.332019 24.5638 0.212523 24.4345 0.128643C24.3052 0.0447622 24.1544 8.39724e-05 24.0003 1.21377e-07C23.8462 -8.48329e-05 23.6954 0.0444279 23.566 0.128166C23.4366 0.211904 23.3343 0.331289 23.2713 0.471911L21.2976 4.84094L16.7368 5.20329C16.5836 5.21542 16.4371 5.27145 16.3149 5.36466C16.1926 5.45785 16.0999 5.58429 16.0476 5.72885C15.9954 5.87339 15.9859 6.02993 16.0203 6.17972C16.0547 6.32952 16.1315 6.46623 16.2416 6.5735L19.612 9.85867L18.42 15.0196C18.3838 15.1758 18.3954 15.3393 18.4533 15.4888C18.5112 15.6384 18.6127 15.7671 18.7447 15.8582C18.8766 15.9493 19.0329 15.9988 19.1933 16C19.3537 16.0012 19.5107 15.9542 19.644 15.865L24.0001 12.9615L28.356 15.865C28.4923 15.9555 28.6531 16.0021 28.8166 15.9985C28.9802 15.9949 29.1386 15.9414 29.2708 15.8451C29.403 15.7486 29.5024 15.6142 29.5559 15.4596C29.6093 15.305 29.6142 15.1377 29.5697 14.9804L28.1064 9.86107L31.7353 6.59591C31.9729 6.38154 32.0601 6.04717 31.9577 5.74402Z" fill="#F3CD03"/>
<path d="M15.9577 5.74402C15.9074 5.59593 15.8148 5.46581 15.6914 5.36971C15.5681 5.27362 15.4192 5.21577 15.2633 5.20329L10.7025 4.84094L8.72887 0.472711C8.66601 0.332019 8.56378 0.212523 8.4345 0.128643C8.30523 0.0447622 8.15443 8.39724e-05 8.00032 1.21377e-07C7.84621 -8.48329e-05 7.69537 0.0444279 7.566 0.128166C7.43663 0.211904 7.33427 0.331289 7.27126 0.471911L5.29764 4.84094L0.736825 5.20329C0.583588 5.21542 0.437093 5.27145 0.314867 5.36466C0.19264 5.45785 0.0998557 5.58429 0.047616 5.72885C-0.00462375 5.87339 -0.014109 6.02993 0.0202967 6.17972C0.0547035 6.32952 0.131542 6.46623 0.241622 6.5735L3.61204 9.85867L2.42003 15.0196C2.38384 15.1758 2.39544 15.3393 2.45333 15.4888C2.51122 15.6384 2.61273 15.7671 2.74468 15.8582C2.87663 15.9493 3.03294 15.9988 3.1933 16C3.35368 16.0012 3.51071 15.9542 3.64404 15.865L8.00006 12.9615L12.356 15.865C12.4923 15.9555 12.6531 16.0021 12.8166 15.9985C12.9802 15.9949 13.1386 15.9414 13.2708 15.8451C13.403 15.7486 13.5024 15.6142 13.5559 15.4596C13.6093 15.305 13.6142 15.1377 13.5697 14.9804L12.1064 9.86107L15.7353 6.59591C15.9729 6.38154 16.0601 6.04717 15.9577 5.74402Z" fill="#F3CD03"/>
</svg>
